<svg xmlns="http://www.w3.org/2000/svg" xmlns:xlink="http://www.w3.org/1999/xlink" width="40" zoomAndPan="magnify" viewBox="0 0 30 30.000001" height="40" preserveAspectRatio="xMidYMid meet" version="1.0"><defs><clipPath id="6244e687be"><path d="M 1.515625 9.410156 L 22.804688 9.410156 L 22.804688 23.679688 L 1.515625 23.679688 Z M 1.515625 9.410156 " clip-rule="nonzero"/></clipPath><clipPath id="a5b6242654"><path d="M 16.8125 14.515625 L 16.996094 14.515625 C 17.273438 14.964844 17.519531 15.410156 17.742188 15.84375 C 17.621094 16.832031 18.527344 17.765625 19.132812 18.503906 C 19.613281 19.085938 22.703125 22.054688 22.769531 22.3125 C 22.847656 22.601562 21.777344 23.664062 21.527344 23.675781 C 21.132812 23.691406 19.992188 22.429688 19.664062 22.085938 C 18.089844 20.4375 16.792969 18.496094 15.15625 16.898438 L 14.839844 17.128906 C 13.824219 18.523438 12.804688 19.945312 11.640625 21.226562 C 11.34375 21.554688 9.441406 23.523438 9.246094 23.613281 C 8.832031 23.804688 7.585938 22.605469 7.851562 22.082031 C 7.917969 21.953125 9.652344 20.453125 9.980469 20.09375 C 10.433594 19.597656 12.488281 17.207031 12.632812 16.765625 C 12.800781 16.261719 12.046875 15.445312 11.703125 15.046875 C 10.777344 13.960938 8.617188 12.027344 7.234375 11.691406 C 4.769531 11.085938 2.441406 14.070312 4.152344 16.230469 C 5.476562 17.898438 7.195312 18.160156 8.71875 16.574219 C 9.578125 15.679688 9.683594 14.101562 10.972656 15.910156 C 11.414062 16.527344 11.195312 16.65625 10.820312 17.214844 C 8.609375 20.496094 4.753906 20.75 2.425781 17.429688 C -0.367188 13.441406 3.820312 8.03125 8.222656 9.769531 C 11.078125 10.898438 13.109375 13.835938 15.171875 15.964844 C 15.28125 15.984375 16.636719 14.710938 16.8125 14.515625 " clip-rule="nonzero"/></clipPath><clipPath id="491c4065eb"><path d="M 0.515625 0.410156 L 21.804688 0.410156 L 21.804688 14.679688 L 0.515625 14.679688 Z M 0.515625 0.410156 " clip-rule="nonzero"/></clipPath><clipPath id="c5dfb767d7"><path d="M 15.8125 5.515625 L 15.996094 5.515625 C 16.273438 5.964844 16.519531 6.410156 16.742188 6.84375 C 16.621094 7.832031 17.527344 8.765625 18.132812 9.503906 C 18.613281 10.085938 21.703125 13.054688 21.769531 13.3125 C 21.847656 13.601562 20.777344 14.664062 20.527344 14.675781 C 20.132812 14.691406 18.992188 13.429688 18.664062 13.085938 C 17.089844 11.4375 15.792969 9.496094 14.15625 7.898438 L 13.839844 8.128906 C 12.824219 9.523438 11.804688 10.945312 10.640625 12.226562 C 10.34375 12.554688 8.441406 14.523438 8.246094 14.613281 C 7.832031 14.804688 6.585938 13.605469 6.851562 13.082031 C 6.917969 12.953125 8.652344 11.453125 8.980469 11.09375 C 9.433594 10.597656 11.488281 8.207031 11.632812 7.765625 C 11.800781 7.261719 11.046875 6.445312 10.703125 6.046875 C 9.777344 4.960938 7.617188 3.027344 6.234375 2.691406 C 3.769531 2.085938 1.441406 5.070312 3.152344 7.230469 C 4.476562 8.898438 6.195312 9.160156 7.71875 7.574219 C 8.578125 6.679688 8.683594 5.101562 9.972656 6.910156 C 10.414062 7.527344 10.195312 7.65625 9.820312 8.214844 C 7.609375 11.496094 3.753906 11.75 1.425781 8.429688 C -1.367188 4.441406 2.820312 -0.96875 7.222656 0.769531 C 10.078125 1.898438 12.109375 4.835938 14.171875 6.964844 C 14.28125 6.984375 15.636719 5.710938 15.8125 5.515625 " clip-rule="nonzero"/></clipPath><clipPath id="981d916260"><rect x="0" width="22" y="0" height="15"/></clipPath><clipPath id="c2199e831c"><path d="M 7.65625 5.34375 L 16.425781 5.34375 L 16.425781 15.070312 L 7.65625 15.070312 Z M 7.65625 5.34375 " clip-rule="nonzero"/></clipPath><clipPath id="9592f3b11c"><path d="M 15.21875 11.996094 C 15.792969 12.03125 16.507812 13.027344 16.414062 13.589844 C 16.011719 14.035156 15.695312 14.667969 15.152344 15.042969 C 12.804688 12.195312 10.570312 9.210938 7.726562 6.824219 C 7.589844 6.453125 8.617188 5.378906 8.925781 5.351562 C 9.300781 5.316406 10.085938 6.128906 10.378906 6.417969 C 11.984375 8.007812 13.757812 10.226562 15.21875 11.996094 " clip-rule="nonzero"/></clipPath><clipPath id="473d59f484"><path d="M 0.65625 0.34375 L 9.425781 0.34375 L 9.425781 10.070312 L 0.65625 10.070312 Z M 0.65625 0.34375 " clip-rule="nonzero"/></clipPath><clipPath id="5a7e39f24c"><path d="M 8.21875 6.996094 C 8.792969 7.03125 9.507812 8.027344 9.414062 8.589844 C 9.011719 9.035156 8.695312 9.667969 8.152344 10.042969 C 5.804688 7.195312 3.570312 4.210938 0.726562 1.824219 C 0.589844 1.453125 1.617188 0.378906 1.925781 0.351562 C 2.300781 0.316406 3.085938 1.128906 3.378906 1.417969 C 4.984375 3.007812 6.757812 5.226562 8.21875 6.996094 " clip-rule="nonzero"/></clipPath><clipPath id="7f14ab46d1"><rect x="0" width="10" y="0" height="11"/></clipPath><clipPath id="04f3fb04b9"><path d="M 15.148438 5.34375 L 22.882812 5.34375 L 22.882812 13.636719 L 15.148438 13.636719 Z M 15.148438 5.34375 " clip-rule="nonzero"/></clipPath><clipPath id="7f05b1f046"><path d="M 16.414062 13.589844 C 16.03125 13.085938 15.617188 12.472656 15.21875 11.996094 C 16.886719 10.425781 18.195312 8.464844 19.796875 6.816406 C 20.136719 6.464844 21.222656 5.195312 21.714844 5.421875 C 21.882812 5.496094 22.960938 6.566406 22.855469 6.816406 C 20.59375 8.96875 18.496094 11.269531 16.414062 13.589844 " clip-rule="nonzero"/></clipPath><clipPath id="d70ef52a51"><path d="M 0.148438 0.34375 L 7.882812 0.34375 L 7.882812 8.636719 L 0.148438 8.636719 Z M 0.148438 0.34375 " clip-rule="nonzero"/></clipPath><clipPath id="abb911fc6a"><path d="M 1.414062 8.589844 C 1.03125 8.085938 0.617188 7.472656 0.21875 6.996094 C 1.886719 5.425781 3.195312 3.464844 4.796875 1.816406 C 5.136719 1.464844 6.222656 0.195312 6.714844 0.421875 C 6.882812 0.496094 7.960938 1.566406 7.855469 1.816406 C 5.59375 3.96875 3.496094 6.269531 1.414062 8.589844 " clip-rule="nonzero"/></clipPath><clipPath id="b802a8344b"><rect x="0" width="8" y="0" height="9"/></clipPath><clipPath id="354b060b17"><path d="M 12.039062 19.214844 L 18.5 19.214844 L 18.5 23.679688 L 12.039062 23.679688 Z M 12.039062 19.214844 " clip-rule="nonzero"/></clipPath><clipPath id="0b83fe65c5"><path d="M 18.382812 22.859375 C 18.351562 22.914062 17.394531 23.585938 17.335938 23.609375 C 16.496094 23.90625 15.984375 22.199219 15.171875 21.960938 C 13.9375 22.808594 13.832031 24.578125 12.253906 22.996094 C 11.835938 22.578125 12.183594 22.351562 12.5 21.949219 C 12.875 21.46875 14.296875 19.945312 14.746094 19.554688 C 15.140625 19.210938 15.199219 19.199219 15.625 19.488281 C 16.015625 19.753906 17.832031 21.71875 18.140625 22.148438 C 18.265625 22.320312 18.507812 22.648438 18.386719 22.855469 " clip-rule="nonzero"/></clipPath><clipPath id="e6f76e1329"><path d="M 0.0390625 0.214844 L 6.5 0.214844 L 6.5 4.679688 L 0.0390625 4.679688 Z M 0.0390625 0.214844 " clip-rule="nonzero"/></clipPath><clipPath id="85199d13f5"><path d="M 6.382812 3.859375 C 6.351562 3.914062 5.394531 4.585938 5.335938 4.609375 C 4.496094 4.90625 3.984375 3.199219 3.171875 2.960938 C 1.9375 3.808594 1.832031 5.578125 0.253906 3.996094 C -0.164062 3.578125 0.183594 3.351562 0.5 2.949219 C 0.875 2.46875 2.296875 0.945312 2.746094 0.554688 C 3.140625 0.210938 3.199219 0.199219 3.625 0.488281 C 4.015625 0.753906 5.832031 2.71875 6.140625 3.148438 C 6.265625 3.320312 6.507812 3.648438 6.386719 3.855469 " clip-rule="nonzero"/></clipPath><clipPath id="4a732e26af"><rect x="0" width="7" y="0" height="5"/></clipPath><clipPath id="fbbb76182d"><path d="M 11.878906 5.34375 L 18.417969 5.34375 L 18.417969 9.808594 L 11.878906 9.808594 Z M 11.878906 5.34375 " clip-rule="nonzero"/></clipPath><clipPath id="f3b05ae99d"><path d="M 11.90625 6.34375 C 11.867188 6.105469 13.175781 5.332031 13.421875 5.351562 C 13.898438 5.394531 15.050781 7.117188 15.277344 7.082031 C 15.625 6.859375 16.824219 5.351562 17.121094 5.378906 C 17.367188 5.402344 18.40625 6.191406 18.410156 6.488281 C 18.410156 6.714844 15.539062 9.742188 15.285156 9.742188 C 14.800781 9.429688 11.949219 6.582031 11.90625 6.34375 " clip-rule="nonzero"/></clipPath><clipPath id="4c74ecfd28"><path d="M 0.878906 0.34375 L 7.417969 0.34375 L 7.417969 4.753906 L 0.878906 4.753906 Z M 0.878906 0.34375 " clip-rule="nonzero"/></clipPath><clipPath id="2265d73c0c"><path d="M 0.90625 1.34375 C 0.867188 1.105469 2.175781 0.332031 2.421875 0.351562 C 2.898438 0.394531 4.050781 2.117188 4.277344 2.082031 C 4.625 1.859375 5.824219 0.351562 6.121094 0.378906 C 6.367188 0.402344 7.40625 1.191406 7.410156 1.488281 C 7.410156 1.714844 4.539062 4.742188 4.285156 4.742188 C 3.800781 4.429688 0.949219 1.582031 0.90625 1.34375 " clip-rule="nonzero"/></clipPath><clipPath id="b14cd591e7"><rect x="0" width="8" y="0" height="5"/></clipPath><clipPath id="dfc2e34115"><path d="M 5.183594 13.234375 L 7.972656 13.234375 L 7.972656 16 L 5.183594 16 Z M 5.183594 13.234375 " clip-rule="nonzero"/></clipPath><clipPath id="f44a59628b"><path d="M 5.296875 15.085938 C 4.824219 13.007812 7.597656 12.632812 7.898438 14.355469 C 8.199219 16.082031 5.632812 16.5625 5.296875 15.085938 " clip-rule="nonzero"/></clipPath><clipPath id="4d9ea294f0"><path d="M 0.183594 0.234375 L 2.972656 0.234375 L 2.972656 3 L 0.183594 3 Z M 0.183594 0.234375 " clip-rule="nonzero"/></clipPath><clipPath id="b8ad780af7"><path d="M 0.296875 2.085938 C -0.175781 0.0078125 2.597656 -0.367188 2.898438 1.355469 C 3.199219 3.082031 0.632812 3.5625 0.296875 2.085938 " clip-rule="nonzero"/></clipPath><clipPath id="86403a0996"><rect x="0" width="3" y="0" height="3"/></clipPath><clipPath id="80a5931c34"><path d="M 21.765625 13.078125 L 24.71875 13.078125 L 24.71875 15.945312 L 21.765625 15.945312 Z M 21.765625 13.078125 " clip-rule="nonzero"/></clipPath><clipPath id="ce90a68fdf"><path d="M 21.882812 14.953125 C 22.1875 16.308594 24.425781 16.257812 24.632812 14.707031 C 24.929688 12.515625 21.359375 12.625 21.882812 14.953125 " clip-rule="nonzero"/></clipPath><clipPath id="49955c9255"><path d="M 0.765625 0.078125 L 3.71875 0.078125 L 3.71875 2.945312 L 0.765625 2.945312 Z M 0.765625 0.078125 " clip-rule="nonzero"/></clipPath><clipPath id="9e298f00f8"><path d="M 0.882812 1.953125 C 1.1875 3.308594 3.425781 3.257812 3.632812 1.707031 C 3.929688 -0.484375 0.359375 -0.375 0.882812 1.953125 " clip-rule="nonzero"/></clipPath><clipPath id="416022af53"><rect x="0" width="4" y="0" height="3"/></clipPath><clipPath id="b34d46202e"><path d="M 16.742188 9.011719 L 28.542969 9.011719 L 28.542969 20.09375 L 16.742188 20.09375 Z M 16.742188 9.011719 " clip-rule="nonzero"/></clipPath><clipPath id="70655326c5"><path d="M 26.234375 14.449219 C 26.25 15.402344 24.152344 17.640625 23.222656 17.667969 C 22.691406 17.683594 19.714844 14.949219 19.613281 14.558594 C 19.5625 14.363281 19.640625 14.316406 19.722656 14.179688 C 19.859375 13.949219 21.167969 12.695312 21.453125 12.457031 C 21.832031 12.140625 22.78125 11.390625 23.246094 11.390625 C 24.140625 11.394531 26.222656 13.566406 26.234375 14.449219 M 22.742188 9.105469 C 21.515625 9.367188 18.367188 12.5625 17.410156 13.585938 C 17.160156 13.851562 16.957031 14.355469 16.8125 14.515625 C 16.902344 14.828125 17.082031 15.339844 17.28125 15.578125 C 17.492188 15.824219 17.675781 15.789062 17.742188 15.84375 C 18.882812 16.824219 21.753906 19.824219 23.046875 20.039062 C 24.921875 20.351562 28.246094 16.769531 28.457031 14.949219 C 28.730469 12.582031 25.207031 8.589844 22.75 9.105469 " clip-rule="nonzero"/></clipPath><clipPath id="ddeef5c8ec"><path d="M 0.742188 0.0117188 L 12.542969 0.0117188 L 12.542969 11.09375 L 0.742188 11.09375 Z M 0.742188 0.0117188 " clip-rule="nonzero"/></clipPath><clipPath id="48eef39f95"><path d="M 10.234375 5.449219 C 10.25 6.402344 8.152344 8.640625 7.222656 8.667969 C 6.691406 8.683594 3.714844 5.949219 3.613281 5.558594 C 3.5625 5.363281 3.640625 5.316406 3.722656 5.179688 C 3.859375 4.949219 5.167969 3.695312 5.453125 3.457031 C 5.832031 3.140625 6.78125 2.390625 7.246094 2.390625 C 8.140625 2.394531 10.222656 4.566406 10.234375 5.449219 M 6.742188 0.105469 C 5.515625 0.367188 2.367188 3.5625 1.410156 4.585938 C 1.160156 4.851562 0.957031 5.355469 0.8125 5.515625 C 0.902344 5.828125 1.082031 6.339844 1.28125 6.578125 C 1.492188 6.824219 1.675781 6.789062 1.742188 6.84375 C 2.882812 7.824219 5.753906 10.824219 7.046875 11.039062 C 8.921875 11.351562 12.246094 7.769531 12.457031 5.949219 C 12.730469 3.582031 9.207031 -0.410156 6.75 0.105469 " clip-rule="nonzero"/></clipPath><clipPath id="f8488ae5dd"><rect x="0" width="13" y="0" height="12"/></clipPath></defs><g clip-path="url(#6244e687be)"><g clip-path="url(#a5b6242654)"><g transform="matrix(1, 0, 0, 1, 1, 9)"><g clip-path="url(#981d916260)"><g clip-path="url(#491c4065eb)"><g clip-path="url(#c5dfb767d7)"><rect x="-7.6" width="43.2" fill="#733376" height="43.200001" y="-15.6" fill-opacity="1"/></g></g></g></g></g></g><g clip-path="url(#c2199e831c)"><g clip-path="url(#9592f3b11c)"><g transform="matrix(1, 0, 0, 1, 7, 5)"><g clip-path="url(#7f14ab46d1)"><g clip-path="url(#473d59f484)"><g clip-path="url(#5a7e39f24c)"><rect x="-13.6" width="43.2" fill="#f2972f" height="43.200001" y="-11.6" fill-opacity="1"/></g></g></g></g></g></g><g clip-path="url(#04f3fb04b9)"><g clip-path="url(#7f05b1f046)"><g transform="matrix(1, 0, 0, 1, 15, 5)"><g clip-path="url(#b802a8344b)"><g clip-path="url(#d70ef52a51)"><g clip-path="url(#abb911fc6a)"><rect x="-21.6" width="43.2" fill="#c34f53" height="43.200001" y="-11.6" fill-opacity="1"/></g></g></g></g></g></g><g clip-path="url(#354b060b17)"><g clip-path="url(#0b83fe65c5)"><g transform="matrix(1, 0, 0, 1, 12, 19)"><g clip-path="url(#4a732e26af)"><g clip-path="url(#e6f76e1329)"><g clip-path="url(#85199d13f5)"><rect x="-18.6" width="43.2" fill="#733374" height="43.200001" y="-25.6" fill-opacity="1"/></g></g></g></g></g></g><g clip-path="url(#fbbb76182d)"><g clip-path="url(#f3b05ae99d)"><g transform="matrix(1, 0, 0, 1, 11, 5)"><g clip-path="url(#b14cd591e7)"><g clip-path="url(#4c74ecfd28)"><g clip-path="url(#2265d73c0c)"><rect x="-17.6" width="43.2" fill="#bf4b50" height="43.200001" y="-11.6" fill-opacity="1"/></g></g></g></g></g></g><g clip-path="url(#dfc2e34115)"><g clip-path="url(#f44a59628b)"><g transform="matrix(1, 0, 0, 1, 5, 13)"><g clip-path="url(#86403a0996)"><g clip-path="url(#4d9ea294f0)"><g clip-path="url(#b8ad780af7)"><rect x="-11.6" width="43.2" fill="#723474" height="43.200001" y="-19.6" fill-opacity="1"/></g></g></g></g></g></g><g clip-path="url(#80a5931c34)"><g clip-path="url(#ce90a68fdf)"><g transform="matrix(1, 0, 0, 1, 21, 13)"><g clip-path="url(#416022af53)"><g clip-path="url(#49955c9255)"><g clip-path="url(#9e298f00f8)"><rect x="-27.6" width="43.2" fill="#f3ebe0" height="43.200001" y="-19.6" fill-opacity="1"/></g></g></g></g></g></g><g clip-path="url(#b34d46202e)"><g clip-path="url(#70655326c5)"><g transform="matrix(1, 0, 0, 1, 16, 9)"><g clip-path="url(#f8488ae5dd)"><g clip-path="url(#ddeef5c8ec)"><g clip-path="url(#48eef39f95)"><rect x="-22.6" width="43.2" fill="#f3ebe0" height="43.200001" y="-15.6" fill-opacity="1"/></g></g></g></g></g></g></svg>